<?xml version="1.0" encoding="UTF-8" standalone="no"?>
<!-- Created with Inkscape (http://www.inkscape.org/) -->

<svg
   xmlns:dc="http://purl.org/dc/elements/1.1/"
   xmlns:cc="http://creativecommons.org/ns#"
   xmlns:rdf="http://www.w3.org/1999/02/22-rdf-syntax-ns#"
   xmlns:svg="http://www.w3.org/2000/svg"
   xmlns="http://www.w3.org/2000/svg"
   xmlns:sodipodi="http://sodipodi.sourceforge.net/DTD/sodipodi-0.dtd"
   xmlns:inkscape="http://www.inkscape.org/namespaces/inkscape"
   width="240"
   height="240"
   viewBox="0 0 240 240"
   id="svg3393"
   version="1.1"
   inkscape:version="0.91 r13725"
   sodipodi:docname="icon.svg"
   inkscape:export-filename="C:\Users\runarbe\Documents\Apache\sdi4apps\tracker\resources\icon.png"
   inkscape:export-xdpi="384"
   inkscape:export-ydpi="384">
  <defs
     id="defs3395" />
  <sodipodi:namedview
     id="base"
     pagecolor="#ffffff"
     bordercolor="#666666"
     borderopacity="1.0"
     inkscape:pageopacity="0.0"
     inkscape:pageshadow="2"
     inkscape:zoom="2.775"
     inkscape:cx="11.152146"
     inkscape:cy="120"
     inkscape:document-units="px"
     inkscape:current-layer="layer1"
     showgrid="false"
     units="px"
     fit-margin-top="0"
     fit-margin-left="0"
     fit-margin-right="0"
     fit-margin-bottom="0"
     showguides="true"
     inkscape:guide-bbox="true"
     inkscape:window-width="1536"
     inkscape:window-height="801"
     inkscape:window-x="-8"
     inkscape:window-y="-8"
     inkscape:window-maximized="1">
    <sodipodi:guide
       position="12.942989,178.98305"
       orientation="1,0"
       id="guide3412" />
    <sodipodi:guide
       position="58.058552,13.682589"
       orientation="0,1"
       id="guide3414" />
    <sodipodi:guide
       position="47.70416,227.42681"
       orientation="0,1"
       id="guide3416" />
    <sodipodi:guide
       position="226.68721,111.67951"
       orientation="1,0"
       id="guide3418" />
  </sodipodi:namedview>
  <metadata
     id="metadata3398">
    <rdf:RDF>
      <cc:Work
         rdf:about="">
        <dc:format>image/svg+xml</dc:format>
        <dc:type
           rdf:resource="http://purl.org/dc/dcmitype/StillImage" />
        <dc:title />
      </cc:Work>
    </rdf:RDF>
  </metadata>
  <g
     inkscape:label="Layer 1"
     inkscape:groupmode="layer"
     id="layer1"
     transform="translate(-234.28572,-472.36221)">
    <rect
       style="fill:#f1f1f1;fill-opacity:1;stroke:none;stroke-width:4;stroke-miterlimit:4;stroke-dasharray:none"
       id="rect3422"
       width="240"
       height="240"
       x="234.28572"
       y="472.36221"
       rx="20"
       ry="20"
       inkscape:export-xdpi="384"
       inkscape:export-ydpi="384" />
    <path
       inkscape:connector-curvature="0"
       style="fill:#029ddf"
       d="m 269.39621,699.98428 c 0.14012,-0.058 0.36914,-0.058 0.50829,0 0.14011,0.058 0.029,0.10243 -0.25415,0.10243 -0.28023,0 -0.39425,-0.0483 -0.25414,-0.10243 z"
       id="path4746" />
    <path
       inkscape:connector-curvature="0"
       style="fill:#029ddf"
       d="m 293.9192,699.97791 c 0.1981,-0.0483 0.47253,-0.0483 0.61072,0.008 0.13818,0.058 -0.029,0.0976 -0.36044,0.0966 -0.33628,-0.004 -0.44837,-0.0483 -0.25028,-0.10146 z"
       id="path4744" />
    <path
       inkscape:connector-curvature="0"
       style="fill:#029ddf"
       d="m 270.41355,699.78039 c 0.14012,-0.058 0.36913,-0.058 0.50828,0 0.14012,0.058 0.029,0.10243 -0.25414,0.10243 -0.28023,0 -0.39426,-0.0483 -0.25414,-0.10243 z"
       id="path4734" />
    <path
       inkscape:connector-curvature="0"
       style="fill:#029ddf"
       d="m 292.69826,699.77401 c 0.1981,-0.0483 0.47253,-0.0483 0.61072,0.008 0.13818,0.058 -0.0193,0.0976 -0.36044,0.0966 -0.33531,-0.004 -0.44837,-0.0483 -0.25028,-0.10146 z"
       id="path4732" />
    <path
       inkscape:connector-curvature="0"
       style="fill:#029ddf"
       d="m 271.74011,699.57012 c 0.1981,-0.0483 0.47253,-0.0483 0.61071,0.008 0.13819,0.058 -0.029,0.0976 -0.36043,0.0966 -0.33628,-0.004 -0.44837,-0.0483 -0.25028,-0.10146 z"
       id="path4724" />
    <path
       inkscape:connector-curvature="0"
       style="fill:#029ddf"
       d="m 291.27391,699.57012 c 0.1981,-0.0483 0.47253,-0.0483 0.61071,0.008 0.13819,0.058 -0.0193,0.0976 -0.36043,0.0966 -0.33531,-0.004 -0.44837,-0.0483 -0.25028,-0.10146 z"
       id="path4722" />
    <path
       inkscape:connector-curvature="0"
       style="fill:#029ddf"
       d="m 273.16436,699.36623 c 0.1981,-0.0483 0.47253,-0.0483 0.61072,0.008 0.13818,0.058 -0.029,0.0976 -0.36044,0.0966 -0.33628,-0.004 -0.44837,-0.0483 -0.25028,-0.10147 z"
       id="path4716" />
    <path
       inkscape:connector-curvature="0"
       style="fill:#029ddf"
       d="m 289.64229,699.36623 c 0.19616,-0.0483 0.51601,-0.0483 0.71217,0 0.19616,0.0483 0.0387,0.0966 -0.35657,0.0966 -0.39136,0 -0.55177,-0.0386 -0.3556,-0.0966 z"
       id="path4714" />
    <path
       inkscape:connector-curvature="0"
       style="fill:#029ddf"
       d="m 274.78836,699.16311 c 0.19616,-0.0483 0.51601,-0.0483 0.71217,0 0.19616,0.0483 0.0386,0.0966 -0.35657,0.0966 -0.39136,0 -0.55177,-0.0386 -0.3556,-0.0966 z"
       id="path4706" />
    <path
       inkscape:connector-curvature="0"
       style="fill:#029ddf"
       d="m 287.50576,699.15982 c 0.25221,-0.0483 0.66386,-0.0483 0.91607,0 0.25221,0.0483 0.0483,0.087 -0.45804,0.087 -0.50345,0 -0.70927,-0.0387 -0.45803,-0.087 z"
       id="path4704" />
    <path
       inkscape:connector-curvature="0"
       style="fill:#029ddf"
       d="m 277.33547,698.95206 c 0.36527,-0.0483 0.9151,-0.0483 1.22085,0.002 0.30632,0.0483 0.007,0.087 -0.66483,0.087 -0.67159,-0.002 -0.92187,-0.0386 -0.55563,-0.087 z"
       id="path4696" />
    <path
       inkscape:connector-curvature="0"
       style="fill:#029ddf"
       d="m 284.0421,698.95206 c 0.3614,-0.0483 1.00216,-0.0483 1.42435,-0.002 0.42228,0.0483 0.12658,0.0773 -0.6571,0.0773 -0.78368,0 -1.12875,-0.0386 -0.76725,-0.0773 z"
       id="path4694" />
    <g
       id="g6704"
       transform="translate(0,11.611291)">
      <path
         id="path4294"
         d="m 330.20672,652.5705 c -0.0677,-0.17683 -0.12369,-1.13532 -0.12369,-2.12956 0,-3.5863 -1.06459,-9.16127 -2.57843,-13.50264 -1.04941,-3.00959 -3.45438,-7.80851 -5.31203,-10.59982 -8.377,-12.58753 -22.27003,-20.57017 -37.21721,-21.38429 -1.51972,-0.087 -2.67032,-0.23579 -2.75738,-0.36721 -0.17877,-0.26863 -0.20969,-23.14454 -0.029,-23.60798 0.15074,-0.39329 1.50224,-0.42035 5.30846,-0.10726 10.80419,0.88901 20.64449,3.81057 29.55557,8.77493 20.82905,11.60372 34.52669,32.28551 36.92277,55.74855 0.25124,2.45889 0.43677,6.3141 0.34884,7.24244 -0.0193,0.20003 -2.56934,0.25414 -12.00755,0.25414 -10.73964,0 -11.99624,-0.029 -12.10698,-0.32178 z"
         style="fill:#029ddf"
         inkscape:connector-curvature="0" />
      <path
         id="path4292"
         d="m 378.41278,652.63815 c -0.0483,-0.14012 -0.1836,-2.21548 -0.30439,-4.61233 -0.88225,-17.57141 -6.2341,-33.77866 -15.99757,-48.44455 -15.35757,-23.06907 -40.12108,-38.47032 -67.53471,-42.00231 -3.22489,-0.41551 -7.46509,-0.72667 -9.90504,-0.72763 -1.51847,-3.9e-4 -2.0425,-0.0773 -2.28911,-0.31985 -0.28313,-0.28314 -0.31985,-1.63675 -0.31695,-11.85265 0.002,-6.41316 0.087,-11.66026 0.18457,-11.81989 0.34111,-0.53824 10.01539,-0.009 16.599,0.90834 32.02683,4.46428 60.77581,21.58452 80.10717,47.70444 12.57787,16.995 20.34957,36.85474 22.73347,58.09342 0.47253,4.21227 0.93056,12.09017 0.74503,12.82776 l -0.12562,0.49958 -11.90589,0 c -9.34361,0 -11.92435,-0.058 -11.99141,-0.25414 z"
         style="fill:#029ddf"
         inkscape:connector-curvature="0" />
      <path
         id="path4290"
         d="m 426.46558,652.75894 c -0.0773,-0.0773 -0.13818,-0.92284 -0.13818,-1.88374 -0.002,-2.64462 -0.37203,-9.09179 -0.7257,-12.63256 -3.34665,-33.49882 -18.67475,-65.16792 -42.93964,-88.71648 -24.66243,-23.93431 -56.56953,-38.16071 -90.79782,-40.48384 -1.7156,-0.11692 -4.47888,-0.21162 -6.14066,-0.21162 -2.47551,0 -3.07926,-0.058 -3.34123,-0.31985 -0.28313,-0.28313 -0.31985,-1.63675 -0.31695,-11.85255 0.002,-6.40948 0.087,-11.66035 0.18456,-11.81989 0.31696,-0.50152 12.15772,-6.8e-4 19.14245,0.80977 31.6747,3.67326 60.96531,15.84489 85.70939,35.61641 28.69062,22.92489 48.9624,54.14755 58.04877,89.40719 3.23475,12.55265 5.13501,26.32556 5.24961,38.05037 l 0.0387,4.06964 -11.91875,0.0483 c -6.55539,0.029 -11.98058,-0.009 -12.05605,-0.087 z"
         style="fill:#029ddf"
         inkscape:connector-curvature="0" />
      <path
         style="fill:#e1011a"
         d="m 278.0949,676.59923 c -7.79557,-1.45267 -14.05943,-6.1796 -17.5172,-13.21902 -2.4872,-5.06341 -3.10883,-11.01804 -1.71801,-16.45609 2.03013,-7.93781 7.89133,-14.23694 15.76159,-16.93934 3.45478,-1.18634 8.38454,-1.52794 11.9371,-0.82716 9.76135,1.92519 16.99597,8.95698 19.25203,18.71253 0.25221,1.0899 0.33821,2.41772 0.33434,5.13278 -0.005,3.29997 -0.058,3.86034 -0.5392,5.65943 -2.36149,8.83426 -8.82605,15.29293 -17.57914,17.56319 -2.56422,0.66483 -7.39396,0.84649 -9.93238,0.37397 z"
         id="path4165"
         inkscape:connector-curvature="0" />
    </g>
  </g>
</svg>
